<svg width="17" height="14" viewBox="0 0 17 14" fill="none" xmlns="http://www.w3.org/2000/svg">
<path d="M9.0835 5.9375C8.80537 6.14219 8.28037 6.14219 8.00537 5.9375L3.11162 2.3125H13.9772L9.0835 5.93594V5.9375ZM0.364746 2.06562L7.07412 7.1625C7.48662 7.46719 8.01475 7.62031 8.54287 7.62031C9.071 7.62031 9.60225 7.46719 10.0147 7.1625L16.3022 2.36563V0.75H0.364746V2.06562ZM14.7397 10.8906L11.9179 7.3375L10.6616 8.26719L13.3772 11.6875H3.29287L6.16475 8.075L4.9085 7.14375L1.92725 10.8969V5.025L0.364746 3.70313V13.25H16.3022V4.00312L14.7397 5.325V10.8906Z" fill="#0075A0"/>
</svg>
