<svg width="12" height="18" viewBox="0 0 12 18" fill="none" xmlns="http://www.w3.org/2000/svg">
<path d="M2.8125 4.3125H7.5V5.5625H2.8125V4.3125ZM2.8125 6.5H8.4375V7.75H2.8125V6.5ZM2.8125 8.6875H6.5625V9.9375H2.8125V8.6875ZM9.53125 0.25H2.03125C0.909375 0.25 0 1.15938 0 2.28125V15.7188C0 16.8406 0.909375 17.75 2.03125 17.75H9.53125C10.6531 17.75 11.5625 16.8406 11.5625 15.7188V2.28125C11.5625 1.15938 10.6531 0.25 9.53125 0.25ZM10 15.7141C10 15.9681 9.75781 16.1875 9.50375 16.1875H2.00375C1.74969 16.1875 1.5625 15.9681 1.5625 15.7141V13.375H10V15.7141ZM10 11.8125H1.5625V2.27656C1.5625 2.02266 1.74969 1.8125 2.00359 1.8125H9.50391C9.75766 1.8125 10 2.02266 10 2.27656V11.8125ZM5.78125 14C5.57405 14 5.37534 14.0823 5.22882 14.2288C5.08231 14.3753 5 14.574 5 14.7812C5 14.9885 5.08231 15.1872 5.22882 15.3337C5.37534 15.4802 5.57405 15.5625 5.78125 15.5625C5.98845 15.5625 6.18716 15.4802 6.33368 15.3337C6.48019 15.1872 6.5625 14.9885 6.5625 14.7812C6.5625 14.574 6.48019 14.3753 6.33368 14.2288C6.18716 14.0823 5.98845 14 5.78125 14Z" fill="#0075A0"/>
</svg>
