<svg width="17" height="18" viewBox="0 0 17 18" fill="none" xmlns="http://www.w3.org/2000/svg">
<path d="M6.2561 12.8026L5.13251 11.6459L10.6549 5.95953L11.7784 7.11781L6.2561 12.8026ZM15.656 3.49039L14.177 1.96789C13.5523 1.32313 12.7172 0.96875 11.8279 0.96875C10.9385 0.96875 10.1034 1.32313 9.47867 1.96789L8.38535 3.09336C7.75901 3.73813 7.41476 4.59617 7.41476 5.51164C7.41476 6.17117 7.59645 6.80117 7.92954 7.34258L9.10732 6.13016C9.03879 5.93492 8.99735 5.7282 8.99735 5.51164C8.99735 5.03258 9.17745 4.58141 9.50257 4.24508L10.5975 3.11961C10.9242 2.78328 11.3609 2.59789 11.8279 2.59789C12.2948 2.59789 12.7315 2.78328 13.0582 3.11961L14.5372 4.64211C15.2162 5.34102 15.2162 6.47797 14.5372 7.17688L13.4439 8.30234C13.1172 8.63867 12.6805 8.82406 12.2135 8.82406C12.0111 8.82406 11.8167 8.78305 11.6318 8.71578L10.4509 9.93148C10.9788 10.2732 11.5899 10.4541 12.2135 10.4532C13.1029 10.4532 13.938 10.0988 14.5627 9.45406L15.656 8.32859C16.9518 6.99477 16.9518 4.82422 15.656 3.49039ZM7.51357 14.4252L6.41707 15.5523C6.25499 15.7186 6.06256 15.8503 5.85087 15.9398C5.63917 16.0294 5.41238 16.075 5.18351 16.074C4.71495 16.074 4.27667 15.8886 3.94995 15.5523L2.46617 14.0298C1.78723 13.3309 1.78723 12.1939 2.46617 11.495L3.56267 10.3695C3.89098 10.0332 4.32767 9.84781 4.79623 9.84781C5.00501 9.84781 5.20742 9.89047 5.39707 9.96102L6.57804 8.74859C6.04496 8.40153 5.42698 8.21774 4.79623 8.21867C3.90532 8.21867 3.06861 8.57305 2.44226 9.21781L1.34576 10.3433C0.0468555 11.6771 0.0468555 13.8477 1.34576 15.1815L2.82795 16.704C3.45429 17.3488 4.29101 17.7031 5.18351 17.7031C6.07442 17.7031 6.91114 17.3488 7.53748 16.704L8.63398 15.5785C9.26192 14.9338 9.60776 14.0741 9.60776 13.1586C9.60776 12.5056 9.42767 11.8822 9.09935 11.3441L7.91679 12.5581C8.13514 13.1898 8.00445 13.9215 7.51357 14.4252Z" fill="#0075A0"/>
</svg>
