<svg width="17" height="16" viewBox="0 0 17 16" fill="none" xmlns="http://www.w3.org/2000/svg">
<path d="M14.896 7.78125C14.896 8.9 13.9851 9.8125 12.8647 9.8125H9.046L6.146 12.6047V9.8125H3.80225C2.68193 9.8125 1.771 8.9 1.771 7.78125V3.71875C1.771 2.59844 2.68193 1.6875 3.80225 1.6875H12.8647C13.9851 1.6875 14.896 2.59844 14.896 3.71875V7.78125ZM12.8647 0.125H3.80225C1.821 0.125 0.208496 1.73594 0.208496 3.71875V7.78125C0.208496 9.7625 1.821 11.375 3.80225 11.375H4.5835V14.3438C4.5835 14.6562 4.771 14.9391 5.0585 15.0625C5.15693 15.1047 5.26162 15.125 5.36475 15.125C5.56318 15.125 5.7585 15.0484 5.90693 14.9062L9.67568 11.375H12.8647C14.846 11.375 16.4585 9.7625 16.4585 7.78125V3.71875C16.4585 1.73594 14.846 0.125 12.8647 0.125Z" fill="#0075A0"/>
</svg>
